# xmcd CD database file
#
# Track frame offsets:
#	150
#	12862
#	43571
#	64239
#	89057
#	99523
#	120355
#	131180
#	170368
#	194887
#	216755
#	238524
#	262656
#
# Disc length: 3973 seconds
#
# Revision: 0
# Processed by: cddbd v1.5.2PL0 Copyright (c) Steve Scherf et al.
# Submitted via: CDex 1.70beta2
#
DISCID=b50f830d
DTITLE=Kirk, Roland - Triple Threat - Introducing Roland Kirk
DYEAR=1960
DGENRE=Jazz
TTITLE0=Rolands Theme
TTITLE1=Slow Groove
TTITLE2=Stormy Weather
TTITLE3=The Nearness Of You
TTITLE4=A La Carte
TTITLE5=Easy Living
TTITLE6=Triple Threat
TTITLE7=The Call
TTITLE8=Soul Station
TTITLE9=Our Waltz
TTITLE10=Our Love Is Here To Stay
TTITLE11=Spirit Girl
TTITLE12=Jack The Ripper
EXTD=YEAR: 1960
EXTT0=
EXTT1=
EXTT2=
EXTT3=
EXTT4=
EXTT5=
EXTT6=
EXTT7=
EXTT8=
EXTT9=
EXTT10=
EXTT11=
EXTT12=
PLAYORDER=
